HIERARCHY
ROOT Hips
{
  OFFSET -125.086 92.215 135.881
  CHANNELS 6 Xposition Yposition Zposition Zrotation Xrotation Yrotation
  JOINT LeftUpLeg
  {
    OFFSET 8.64259 1.95398 -2.38835
    CHANNELS 3 Zrotation Xrotation Yrotation
    JOINT LeftLeg
    {
      OFFSET 43.7702 0 0
      CHANNELS 3 Zrotation Xrotation Yrotation
      JOINT LeftFoot
      {
        OFFSET 40.6238 0 0
        CHANNELS 3 Zrotation Xrotation Yrotation
        JOINT LeftToeBase
        {
          OFFSET 12.7242 0 0
          CHANNELS 3 Zrotation Xrotation Yrotation
          End Site
          {
            OFFSET 0 0 0
          }
        }
      }
    }
  }
  JOINT RightUpLeg
  {
    OFFSET -8.2249 1.95398 -2.59336
    CHANNELS 3 Zrotation Xrotation Yrotation
    JOINT RightLeg
    {
      OFFSET 43.5653 0 0
      CHANNELS 3 Zrotation Xrotation Yrotation
      JOINT RightFoot
      {
        OFFSET 40.6238 0 0
        CHANNELS 3 Zrotation Xrotation Yrotation
        JOINT RightToeBase
        {
          OFFSET 12.7242 0 0
          CHANNELS 3 Zrotation Xrotation Yrotation
          End Site
          {
            OFFSET 0 0 0
          }
        }
      }
    }
  }
  JOINT Spine
  {
    OFFSET 0.165834 0.87714 6.61349
    CHANNELS 3 Zrotation Xrotation Yrotation
    JOINT Spine1
    {
      OFFSET 7.38963 1.71661e-005 0
      CHANNELS 3 Zrotation Xrotation Yrotation
      JOINT Spine2
      {
        OFFSET 11.9445 1.14441e-005 0
        CHANNELS 3 Zrotation Xrotation Yrotation
        JOINT Spine3
        {
          OFFSET 14.7254 4.19617e-005 0
          CHANNELS 3 Zrotation Xrotation Yrotation
          JOINT Spine4
          {
            OFFSET 10.9679 0 0
            CHANNELS 3 Zrotation Xrotation Yrotation
            JOINT RightShoulder
            {
              OFFSET 2.46616 -1.6653 3.69651
              CHANNELS 3 Zrotation Xrotation Yrotation
              JOINT RightArm
              {
                OFFSET 13.0012 0 0
                CHANNELS 3 Zrotation Xrotation Yrotation
                JOINT RightForeArm
                {
                  OFFSET 28.7848 1.52588e-005 0
                  CHANNELS 3 Zrotation Xrotation Yrotation
                  JOINT RightHand
                  {
                    OFFSET 26.5688 1.52588e-005 0
                    CHANNELS 3 Zrotation Xrotation Yrotation
                    End Site
                    {
                      OFFSET 0 0 0
                    }
                  }
                }
              }
            }
            JOINT LeftShoulder
            {
              OFFSET 2.38034 -1.29275 -3.7523
              CHANNELS 3 Zrotation Xrotation Yrotation
              JOINT LeftArm
              {
                OFFSET 16.3182 6.10352e-005 0
                CHANNELS 3 Zrotation Xrotation Yrotation
                JOINT LeftForeArm
                {
                  OFFSET 27.0901 0 0
                  CHANNELS 3 Zrotation Xrotation Yrotation
                  JOINT LeftHand
                  {
                    OFFSET 24.5451 1.52588e-005 0
                    CHANNELS 3 Zrotation Xrotation Yrotation
                    End Site
                    {
                      OFFSET 0 0 0
                    }
                  }
                }
              }
            }
            JOINT Neck
            {
              OFFSET 5.0226 -0.0266342 0
              CHANNELS 3 Zrotation Xrotation Yrotation
              JOINT Head
              {
                OFFSET 6.69363 2.86102e-005 0
                CHANNELS 3 Zrotation Xrotation Yrotation
                End Site
                {
                  OFFSET 0 0 0
                }
              }
            }
          }
        }
      }
    }
  }
}
MOTION
Frames:	6
Frame Time:	0.0416667
288.725 62.9883 286.532 97.8582 -52.2753 99.2741 -157.806 10.3183 104.492 -92.8287 0.896122 -0.292479 128.202 24.6035 -11.0263 67.0948 2.09456 24.0556 -163.72 -55.363 100.105 -1.98739 -58.7138 0.105877 4.24015 -24.4657 65.4684 130.936 31.6804 50.1298 0.830891 14.681 -90.2362 -2.4879 1.56998 -0.326948 -14.1579 1.55397 -0.39638 -36.7006 1.59636 0.157825 -16.688 1.59636 0.157818 103.156 3.02355 -77.631 93.008 -8.35722 -11.1163 -17.5079 5.83896 -126.585 3.14442 4.2356 92.0333 -79.1208 -2.55157 92.3916 62.5449 4.04783 -71.5413 -137.296 -23.4156 -89.5962 37.0423 -29.1065 -76.0819 163.808 -13.417 11.0916 -123.552 -16.269 -6.18565 
288.942 62.6714 286.742 97.6781 -52.337 99.1859 -157.768 10.221 104.513 -93.1765 0.0560781 -0.0913454 128.14 23.8148 -11.7942 68.7198 2.40349 24.4364 -163.512 -55.4772 100.28 -1.96855 -59.1093 0.106611 4.24211 -24.0605 65.1641 130.72 32.0853 50.6386 0.841966 14.67 -90.235 -2.46586 1.59241 -0.325425 -14.1359 1.57654 -0.395293 -36.6789 1.61666 0.168063 -16.6662 1.61665 0.168061 103.188 2.92515 -77.5026 93.0376 -8.12277 -10.7475 -17.4534 5.5663 -127.16 3.25747 4.36158 92.0077 -79.1267 -2.54543 92.371 63.8121 4.65186 -71.1715 -137.412 -22.3568 -89.9972 37.2449 -28.3385 -74.2583 163.77 -12.9001 11.0644 -123.449 -16.227 -6.26925 
289.558 61.7838 287.32 97.1641 -52.5032 98.9321 -157.679 9.94997 104.619 -94.1156 -1.93361 0.411312 127.762 21.7452 -13.747 73.1168 3.19824 25.095 -162.934 -55.7846 100.768 -1.93857 -60.2376 0.106269 4.26304 -22.916 64.306 130.123 33.1322 51.9895 0.872731 14.6381 -90.2321 -2.40202 1.65471 -0.316368 -14.072 1.63918 -0.388911 -36.6156 1.67327 0.195705 -16.6029 1.67327 0.195702 103.28 2.64253 -77.1461 93.093 -7.48312 -9.69577 -17.3196 4.83285 -128.752 3.56795 4.70485 91.9099 -79.1444 -2.53036 92.3093 67.0417 6.32966 -70.253 -137.493 -19.6088 -91.008 37.6127 -26.0352 -69.0688 163.649 -11.433 10.9905 -123.144 -16.1215 -6.50265 
290.516 60.4297 288.179 96.352 -52.7407 98.5212 -157.582 9.54432 104.879 -95.4622 -3.79995 1.0304 126.606 19.1592 -15.9923 79.5494 4.14629 25.0813 -162.065 -56.2528 101.497 -1.88916 -62.0449 0.10549 4.3323 -21.1232 62.9977 129.267 34.4969 53.827 0.918962 14.5863 -90.2282 -2.29855 1.74798 -0.303845 -13.9684 1.73291 -0.380513 -36.5129 1.75845 0.235699 -16.5003 1.75846 0.235711 103.423 2.19636 -76.609 93.1013 -6.5691 -8.03876 -17.1692 3.82165 -131.148 4.0219 5.1979 91.6956 -79.1749 -2.51297 92.2043 71.2018 8.83143 -69.1138 -137.281 -15.9568 -92.4193 37.4198 -22.2667 -61.2577 163.433 -9.15782 10.885 -122.629 -16.0032 -6.8489 
291.754 58.7171 289.223 95.2733 -53.015 97.9565 -157.496 9.05022 105.305 -97.0339 -3.88012 1.61611 124.164 17.2771 -17.1349 87.4729 4.83073 23.824 -160.985 -56.8419 102.398 -1.81866 -64.5044 0.106056 4.48705 -18.7731 61.3361 128.322 35.8843 55.7801 0.975876 14.5154 -90.2242 -2.15707 1.8626 -0.290597 -13.8267 1.84802 -0.372326 -36.3725 1.8638 0.282822 -16.3598 1.86381 0.282827 103.609 1.60862 -75.9391 92.9868 -5.53857 -5.84736 -17.0742 2.75919 -134.136 4.55862 5.76368 91.3171 -79.2191 -2.50163 92.0534 75.4238 11.8898 -68.0135 -136.902 -12.1267 -94.175 35.8735 -17.5135 -52.0634 163.104 -6.23239 10.7671 -121.894 -15.9368 -7.26143 
293.192 56.7498 290.368 93.9583 -53.2918 97.2421 -157.402 8.50018 105.837 -98.6511 -0.798355 2.09265 120.136 17.3338 -15.689 96.3437 5.0429 21.6653 -159.759 -57.5087 103.42 -1.72426 -67.6028 0.109625 4.76601 -15.9662 59.4143 127.464 37.1036 57.5494 1.03897 14.4266 -90.2209 -1.97949 1.98933 -0.279281 -13.649 1.97513 -0.366606 -36.1962 1.98126 0.331743 -16.1835 1.98127 0.331751 103.829 0.901707 -75.1796 92.6993 -4.55206 -3.192 -17.0954 1.87921 -137.527 5.1195 6.32586 90.7343 -79.2776 -2.50565 91.8561 79.1937 15.2728 -67.0984 -136.452 -8.60932 -96.1504 32.9112 -12.7003 -42.7172 162.649 -2.8226 10.6581 -120.94 -15.9834 -7.69134 
